<svg width="650" height="244" viewBox="0 0 650 244" fill="none" xmlns="http://www.w3.org/2000/svg">
<path opacity="0.122" fill-rule="evenodd" clip-rule="evenodd" d="M650.003 41.7191L649.961 81.1991L615.891 100.909L581.876 81.1261L581.919 41.6461L589.248 37.4051L587.529 36.4061L587.535 31.3791L591.872 28.8701L596.205 31.3881L596.203 33.3811L615.976 21.9411L650.003 41.7191ZM591.872 29.0061L587.652 31.4471L587.646 36.3391L589.365 37.3381L596.086 33.4491L596.088 31.4561L591.872 29.0061ZM590.286 37.8731L591.861 38.7891L596.083 36.3481L596.085 34.5191L590.286 37.8731ZM596.202 34.4511L596.2 36.4161L591.861 38.9261L590.169 37.9411L582.84 42.1821L582.798 80.5921L615.892 99.8391L649.041 80.6641L649.081 42.2531L615.974 23.0101L596.202 34.4511ZM593.508 107.813L593.501 115.017L587.287 118.613L581.077 115.004L581.085 107.8L587.302 104.204L593.508 107.813ZM581.245 114.907L587.287 118.418L593.333 114.919L593.34 107.91L587.302 104.398L581.253 107.897L581.245 114.907ZM587.69 143.479L587.684 149.299L582.664 152.202L577.648 149.287L577.654 143.467L582.676 140.562L587.69 143.479ZM569.597 111.26L536.766 130.248L503.976 111.189L504.017 73.1421L507.217 71.2891L489.334 60.8891L489.377 21.4091L523.434 1.70506L557.462 21.4831L557.42 60.9611L552.984 63.5281L569.638 73.2111L569.597 111.26ZM556.499 60.4271L556.539 22.0161L523.432 2.77406L490.298 21.9441L490.257 60.3561L508.139 70.7561L536.847 54.1461L552.063 62.9931L556.499 60.4271ZM511.687 72.8201L523.35 79.6031L548.51 65.0481L536.843 58.2651L511.687 72.8201ZM549.43 65.5841L523.349 80.6731L510.766 73.3531L507.567 75.2041L507.53 109.134L536.77 126.13L566.048 109.197L566.085 75.2681L549.43 65.5841ZM494.889 62.6101L492.227 61.0611L492.23 57.9711L494.895 56.4291L497.56 57.9771L497.556 61.0671L494.889 62.6101ZM481.764 159.566L446.196 180.137L410.86 159.595L410.857 162.281L402.666 167.02L402.649 183.641L376.396 198.825L350.171 183.583L350.199 157.891L318.318 139.358L318.315 142.043L306.625 148.808L309.597 150.534L309.569 176.949L304.772 179.723L305.832 180.339L305.79 218.956L272.469 238.229L239.186 218.884L239.199 206.663L233.833 209.767L211.894 197.015L211.922 171.558L228.377 162.036L222.44 158.585L222.45 148.828L201.229 136.493L199.925 137.248L141.801 103.461L141.807 97.9491L129.471 105.086L116.347 97.4571L116.322 121.328L83.666 140.217L86.281 141.734L86.277 145.467L83.055 147.329L79.838 145.46L79.84 142.428L58.122 154.989L-0.00100708 121.205L0.0709929 53.7581L58.266 20.0971L97.182 42.7171L129.557 23.9911L146.069 33.5891L200.069 2.35506L258.196 36.1401L258.181 50.8281L272.922 59.3971L272.937 45.0821L324.147 15.4631L375.293 45.1931L375.245 89.9581L389.266 98.1071L389.243 119.182L410.707 131.657L410.721 118.267L434.632 104.437L411.434 90.9541L411.475 52.9041L444.305 33.9091L477.096 52.9761L477.056 91.0231L455.877 103.273L481.808 118.344L481.764 159.566ZM83.055 147.229L86.19 145.417L86.194 141.784L83.579 140.267L79.928 142.379L79.925 145.41L83.055 147.229ZM66.982 142.568L66.989 135.279L60.324 131.404L53.652 135.265L53.644 142.997L59.926 146.649L66.982 142.568ZM58.259 27.4001L6.36199 57.4161L6.29899 117.56L58.13 147.688L59.116 147.117L52.834 143.466L52.843 134.794L60.325 130.464L67.8 134.811L67.792 142.1L110.029 117.672L110.055 93.8001L94.527 84.7741L94.566 48.5031L58.259 27.4001ZM95.894 49.2741L95.856 84.0051L110.057 92.2591L110.094 57.5281L95.894 49.2741ZM129.556 25.5321L98.51 43.4881L116.394 53.8831L116.349 95.9171L129.473 103.545L141.809 96.4091L141.873 36.0151L144.74 34.3571L129.556 25.5321ZM401.971 153.622L383.286 142.762L358.952 156.836L358.946 161.811L384.527 176.688L401.957 166.604L401.971 153.622ZM376.461 137.969L383.036 141.791L388.261 138.77L388.281 119.448L384.591 117.304L358.978 132.121L358.961 148.091L376.461 137.969ZM358.96 148.914L358.953 155.72L382.325 142.203L376.46 138.794L358.96 148.914ZM376.396 198.002L401.939 183.228L401.956 167.43L384.527 177.515L358.234 162.224L358.239 157.247L353.655 159.899L350.908 158.304L350.882 183.173L376.396 198.002ZM358.248 149.327L350.913 153.568L350.909 157.187L353.656 158.785L358.24 156.132L358.248 149.327ZM317.635 111.939L292.049 97.0671L282.711 102.469L282.705 108.536L317.617 128.83L317.635 111.939ZM281.32 107.732L281.325 103.271L277.476 105.498L281.32 107.732ZM276.09 106.3L266.436 111.884L266.414 132.263L281.303 123.653L281.318 109.338L276.09 106.3ZM317.604 141.631L317.616 130.437L282.703 110.143L282.687 124.457L266.413 133.87L266.404 141.575L272.908 145.357L286.831 137.302L305.914 148.394L317.604 141.631ZM272.195 145.769L265.692 141.988L265.7 134.282L246.245 145.535L246.231 158.611L239.839 162.308L255.018 171.135L264.028 165.924L264.044 150.485L272.195 145.769ZM264.633 176.543L286.774 189.421L300.55 181.452L272.547 165.175L264.64 169.748L264.633 176.543ZM273.523 145.715L291.986 156.452L305.297 148.751L286.829 138.016L273.523 145.715ZM308.953 176.591L308.98 150.891L306.009 149.164L291.985 157.277L272.811 146.127L264.66 150.843L264.644 165.567L272.552 160.994L304.157 179.366L308.953 176.591ZM272.473 234.05L302.187 216.862L302.225 182.426L301.166 181.81L286.774 190.136L264.016 176.9L264.023 170.104L255.823 174.847L255.8 197.063L242.806 204.578L242.793 216.798L272.473 234.05ZM253.445 176.222L242.83 182.362L242.809 201.822L253.424 195.682L253.445 176.222ZM214.296 172.938L214.272 195.64L233.836 207.011L239.202 203.908L239.227 180.267L252.64 172.51L237.461 163.683L234.33 165.496L230.752 163.417L214.296 172.938ZM236.174 162.937L233.885 161.604L232.041 162.67L234.331 164.002L236.174 162.937ZM229.666 161.291L233.888 158.848L238.552 161.56L244.944 157.863L244.957 146.28L231.478 154.076L223.737 149.576L223.728 157.84L229.666 161.291ZM244.192 145.118L234.357 139.401L223.741 145.54L223.738 147.97L231.48 152.47L244.192 145.118ZM199.933 129.946L251.832 99.9291L251.887 48.7771L231.603 36.9871L181.779 65.8041L181.723 119.36L199.933 129.946ZM148.165 39.6731L148.108 92.7661L163.129 84.0771L163.171 45.0711L151.032 38.0151L148.165 39.6731ZM200.061 9.65606L152.361 37.2451L164.5 44.3011L164.456 84.8481L148.106 94.3051L148.101 99.8181L180.338 118.556L180.396 64.9991L231.605 35.3801L251.888 47.1711L251.896 39.7841L200.061 9.65606ZM272.874 104.431L272.92 61.0031L258.179 52.4341L258.124 103.587L202.615 135.691L222.452 147.222L222.454 144.792L234.359 137.909L245.48 144.372L265.702 132.676L265.724 111.471L275.379 105.886L272.874 104.431ZM274.26 103.628L276.765 105.084L281.326 102.446L281.365 65.9121L274.304 61.8061L274.26 103.628ZM324.145 17.0701L274.321 45.8871L274.306 60.2011L282.751 65.1101L282.712 101.643L292.05 96.2411L318.165 111.421L318.179 98.0311L353.742 77.4601L373.861 89.1541L373.907 45.9941L324.145 17.0701ZM319.108 129.697L324.022 132.553L373.845 103.736L373.86 90.2701L353.741 78.5761L319.141 98.5891L319.108 129.697ZM375.244 91.0741L375.229 104.541L324.02 134.159L319.106 131.303L319.098 138.695L350.2 156.775L350.204 153.156L358.249 148.503L358.267 131.707L384.592 116.479L388.282 118.623L388.303 98.6651L375.244 91.0741ZM389.242 120.007L389.222 139.329L383.997 142.351L402.681 153.212L402.667 166.193L410.145 161.866L410.177 132.175L389.242 120.007ZM473.506 88.9601L473.542 55.0311L444.301 38.0281L415.025 54.9681L414.989 88.8971L438.186 102.382L446.284 97.6971L452.327 101.209L473.506 88.9601ZM439.147 102.94L444.229 105.893L451.365 101.766L446.283 98.8121L439.147 102.94ZM454.915 103.829L444.224 110.012L435.594 104.996L411.683 118.826L411.64 158.932L446.197 179.02L480.803 159.007L480.845 118.901L454.915 103.829ZM427.874 141.56L424.004 139.309L424.009 134.82L427.884 132.58L431.753 134.829L431.748 139.318L427.874 141.56ZM427.883 133.067L424.428 135.063L424.424 139.068L427.874 141.074L431.33 139.075L431.334 135.07L427.883 133.067ZM427.615 75.4011L421.143 71.6381L421.151 64.1271L427.631 60.3781L434.106 64.1401L434.098 71.6521L427.615 75.4011ZM427.631 60.5811L421.326 64.2281L421.319 71.5361L427.615 75.1961L433.923 71.5501L433.931 64.2411L427.631 60.5811ZM220.559 144.855L217.877 143.297L217.881 140.184L220.566 138.629L223.248 140.191L223.244 143.303L220.559 144.855ZM220.566 138.967L218.171 140.353L218.168 143.128L220.559 144.518L222.954 143.134L222.957 140.358L220.566 138.967ZM402.347 42.3741L399.684 40.8251L399.688 37.7351L402.354 36.1921L405.018 37.7401L405.014 40.8311L402.347 42.3741ZM335.073 15.0101L328.602 11.2481L328.61 3.73706L335.088 -0.0129395L341.564 3.75006L341.556 11.2611L335.073 15.0101ZM335.088 0.192061L328.785 3.83806L328.777 11.1461L335.073 14.8061L341.382 11.1601L341.389 3.85206L335.088 0.192061ZM23.904 202.727L23.947 162.487L1.08199 149.198L1.08799 144.313L28.162 160.049L28.114 205.175L1.00599 220.853L1.01099 215.968L23.904 202.727ZM31.5 214.892L39.453 219.514L39.443 228.743L31.48 233.35L23.525 228.726L23.535 219.497L31.5 214.892ZM31.481 232.35L38.582 228.242L38.591 220.013L31.499 215.89L24.396 219.998L24.387 228.228L31.481 232.35ZM129.898 138.349L129.913 124.555L141.817 117.672L153.704 124.58L153.689 138.375L141.788 145.258L129.898 138.349ZM152.402 137.627L152.416 125.326L141.816 119.165L131.2 125.304L131.186 137.604L141.789 143.765L152.402 137.627ZM165.145 165.535L165.14 170.561L160.803 173.07L156.472 170.552L156.477 165.948L152.849 168.047L145.376 163.702L145.385 155.032L152.867 150.701L160.341 155.048L160.333 163.296L160.814 163.017L165.145 165.535ZM152.866 151.64L146.194 155.501L146.186 163.234L152.85 167.107L159.523 163.248L159.532 155.516L152.866 151.64ZM160.333 163.432L160.332 163.718L156.594 165.88L156.59 170.484L160.803 172.934L165.023 170.493L165.029 165.603L160.814 163.153L160.333 163.432ZM91.575 159.833L125.795 179.724L125.768 204.168L132.017 200.553L149.49 210.709L149.5 201.751L173.294 187.987L197.061 201.803L197.032 229.382L173.235 243.145L149.592 229.402L149.59 231.199L131.974 241.391L114.381 231.16L114.386 226.006L91.49 239.25L57.269 219.358L57.311 179.65L91.575 159.833ZM173.236 242.4L196.389 229.009L196.417 202.174L173.293 188.733L150.143 202.125L150.115 228.959L173.236 242.4ZM131.974 240.839L149.114 230.922L149.136 211.056L132.016 201.106L125.768 204.72L125.752 219.431L114.864 225.73L114.858 230.885L131.974 240.839ZM124.841 205.258L114.879 211.02L114.865 224.655L124.826 218.893L124.841 205.258ZM91.491 238.175L114.388 224.931L114.403 210.743L124.841 204.704L124.867 180.26L91.574 160.908L58.237 180.189L58.196 218.821L91.491 238.175ZM84.189 228.915L85.983 229.958L85.981 232.042L84.184 233.08L82.39 232.037L82.392 229.954L84.189 228.915ZM84.185 232.856L85.786 231.928L85.788 230.07L84.188 229.14L82.586 230.067L82.584 231.924L84.185 232.856ZM205.818 160.375L207.6 161.412L207.598 163.48L205.813 164.513L204.033 163.475L204.035 161.408L205.818 160.375ZM222.9 224.868L225.488 226.372L225.485 229.376L222.894 230.875L220.304 229.37L220.308 226.366L222.9 224.868ZM222.894 230.549L225.205 229.212L225.207 226.533L222.9 225.192L220.587 226.528L220.585 229.207L222.894 230.549ZM291.094 236.219L294.449 238.171L294.445 242.065L291.086 244.008L287.731 242.058L287.735 238.164L291.094 236.219ZM313.108 158.868L315.79 160.427L315.787 163.54L313.101 165.092L310.42 163.534L310.423 160.421L313.108 158.868ZM313.101 164.756L315.495 163.371L315.499 160.595L313.107 159.203L310.713 160.589L310.71 163.365L313.101 164.756ZM329.563 205.881L333.715 208.296L333.71 213.116L329.552 215.522L325.397 213.107L325.403 208.286L329.563 205.881ZM329.553 215.391L333.597 213.05L333.602 208.361L329.562 206.01L325.515 208.353L325.51 213.041L329.553 215.391ZM329.714 160.519L329.718 157.156L332.62 155.477L335.519 157.162L335.515 160.525L332.613 162.205L329.714 160.519ZM335.44 157.207L332.62 155.568L329.796 157.201L329.793 160.474L332.613 162.113L335.437 160.48L335.44 157.207ZM365.385 223.698L370.44 226.635L370.434 232.499L365.373 235.425L360.32 232.487L360.326 226.625L365.385 223.698ZM365.373 234.791L369.886 232.181L369.892 226.953L365.385 224.331L360.873 226.942L360.868 232.171L365.373 234.791ZM401.798 204.092L411.243 209.583L411.231 220.542L401.775 226.011L392.329 220.521L392.341 209.563L401.798 204.092ZM401.776 224.825L410.208 219.948L410.219 210.175L401.797 205.28L393.363 210.157L393.353 219.929L401.776 224.825ZM414.06 164.094L416.126 165.295L416.123 167.694L414.054 168.89L411.986 167.689L411.989 165.291L414.06 164.094ZM414.054 168.825L416.067 167.661L416.07 165.328L414.06 164.159L412.045 165.324L412.043 167.657L414.054 168.825ZM503.581 125.634L508.595 128.549L508.588 134.368L503.568 137.273L498.552 134.357L498.559 128.538L503.581 125.634ZM520.425 152.817L524.295 155.066L524.29 159.555L520.416 161.796L516.546 159.547L516.551 155.057L520.425 152.817ZM520.416 161.31L523.871 159.312L523.875 155.308L520.425 153.304L516.97 155.3L516.966 159.304L520.416 161.31ZM640.844 130.833L648.398 135.224L648.389 143.987L640.825 148.36L633.272 143.971L633.282 135.208L640.844 130.833ZM640.825 147.412L647.571 143.512L647.58 135.697L640.842 131.781L634.1 135.683L634.091 143.497L640.825 147.412Z" fill="#0CB8B6"/>
</svg>
